<svg xmlns="http://www.w3.org/2000/svg" xmlns:xlink="http://www.w3.org/1999/xlink" width="62.302" height="73.56" viewBox="0 0 62.302 73.56">
  <defs>
    <linearGradient id="linear-gradient" x1="0.5" x2="0.5" y2="1" gradientUnits="objectBoundingBox">
      <stop offset="0" stop-color="#fdb3ec"/>
      <stop offset="1" stop-color="#ffdeeb"/>
    </linearGradient>
  </defs>
  <g id="logo" transform="translate(-36.527 -17.44)">
    <path id="EAS" d="M2.176-22.088V-.648H15.538V-4.314H6.526V-9.908h8.079v-3.667H6.526v-4.816h9.011v-3.7ZM27.19-.648,28.5-4.718h7.178L36.978-.648h4.63L34.151-22.088H29.987L22.529-.648Zm4.879-15.288,2.424,7.551H29.645Zm32.192-2.921c-1.523-2.362-4.1-3.511-7.52-3.511-5.1,0-7.333,2.641-7.333,6.028,0,3.542,2.113,5.562,6.339,6.681,3.48.9,4.381,1.74,4.381,3.232,0,1.305-.839,2.393-3.325,2.393a5.356,5.356,0,0,1-4.661-2.144l-3.325,2.3c1.9,2.486,4.506,3.511,8.266,3.511,5.034,0,7.4-2.734,7.4-6.246,0-3.791-2.02-5.469-6.494-6.588-2.859-.715-4.226-1.46-4.226-3.138,0-1.46,1.056-2.362,3.014-2.362A4.367,4.367,0,0,1,61-16.526Z" transform="translate(34.351 91.368)" fill="url(#linear-gradient)"/>
    <path id="icon" d="M25.787,3,1,16.52l9.013,4.912v13.52L25.787,43.56,41.56,34.952V21.432l4.507-2.456V34.547h4.507V16.52ZM41.155,16.52,25.787,24.9,10.419,16.52,25.787,8.138Zm-4.1,15.751L25.787,38.423,14.52,32.271V23.889L25.787,30.04l11.267-6.152Z" transform="translate(40.891 14.44)" fill="url(#linear-gradient)"/>
  </g>
</svg>
